<svg xmlns="http://www.w3.org/2000/svg" version="1.1" xmlns:xlink="http://www.w3.org/1999/xlink" xmlns:svgjs="http://svgjs.dev/svgjs" width="300" height="300"><svg width="300" height="300" viewBox="0 0 300 300" fill="none" xmlns="http://www.w3.org/2000/svg">
<g clip-path="url(#clip0_524_568)">
<path d="M183.709 68.9741C173.935 59.1995 161.124 54.3119 148.315 54.3119C135.504 54.3119 122.694 59.1995 112.919 68.9741L173.599 129.654L112.085 121.641C108.029 121.111 103.975 120.852 99.9416 120.852C75.1984 120.852 51.2546 130.636 33.527 148.364L116.119 230.956C125.939 240.776 138.813 245.688 151.685 245.688C164.556 245.688 177.43 240.776 187.25 230.956L126.908 170.614L187.91 178.503C191.939 179.024 195.969 179.281 199.977 179.281C224.752 179.281 248.725 169.483 266.471 151.735L183.709 68.9741Z" fill="white"></path>
<path d="M148.315 36.2941C130.131 36.2941 113.036 43.3773 100.178 56.2352L87.4389 68.9741L100.178 81.7152L123.408 104.943L114.412 103.771C109.631 103.15 104.761 102.835 99.9416 102.835C70.0449 102.835 41.9324 114.478 20.7859 135.625L8.04703 148.364L20.7859 161.105L103.378 243.697C116.282 256.598 133.439 263.706 151.685 263.706C169.932 263.706 187.088 256.598 199.991 243.697L212.734 230.956L177.043 195.265L185.599 196.373C190.351 196.988 195.189 197.298 199.977 197.298C229.908 197.298 258.047 185.643 279.212 164.476L291.952 151.735L196.45 56.233C183.592 43.3751 166.498 36.2941 148.315 36.2941ZM148.315 54.3119C161.124 54.3119 173.935 59.1995 183.709 68.9741L266.471 151.735C248.725 169.483 224.752 179.281 199.977 179.281C195.969 179.281 191.939 179.024 187.91 178.503L126.908 170.614L187.25 230.956C177.43 240.776 164.556 245.688 151.685 245.688C138.813 245.688 125.939 240.776 116.119 230.956L33.527 148.364C51.2546 130.636 75.1984 120.852 99.9416 120.852C103.975 120.852 108.029 121.111 112.085 121.641L173.599 129.654L112.919 68.9741C122.694 59.1995 135.504 54.3119 148.315 54.3119Z" fill="#231F20"></path>
</g>
<defs>
<clipPath id="SvgjsClipPath1026">
<rect width="300" height="300" fill="white"></rect>
</clipPath>
</defs>
</svg><style>@media (prefers-color-scheme: light) { :root { filter: none; } }
@media (prefers-color-scheme: dark) { :root { filter: none; } }
</style></svg>